{"accessors" : [{"bufferView" : 0, "byteOffset" : 0, "componentType" : 5123, "count" : 528, "type" : "SCALAR", "max" : [459], "min" : [0]}, {"bufferView" : 1, "byteOffset" : 0, "componentType" : 5126, "count" : 460, "type" : "VEC3", "max" : [0.5640389919281006, 1.528259038925171, 0.5642610192298889], "min" : [-0.5506079792976379, -0.0035459999926388264, -0.3634589910507202], "name" : "POSITION"}, {"bufferView" : 1, "byteOffset" : 12, "componentType" : 5126, "count" : 460, "type" : "VEC2", "max" : [1, -0], "min" : [0, -1], "name" : "TEXCOORD_0"}, {"bufferView" : 1, "byteOffset" : 20, "componentType" : 5126, "count" : 460, "type" : "VEC3", "max" : [0.9999892711639404, 0.9999784827232361, 1.0000015497207642], "min" : [-0.9998989105224609, -1.0000044107437134, -0.9706599116325378], "name" : "NORMAL"}], "asset" : {"generator" : "Aspose.3D 22.10", "version" : "2.0"}, "buffers" : [{"uri" : "data:application/octet-stream;base64,", "byteLength" : 17960}], "bufferViews" : [{"buffer" : 0, "byteOffset" : 0, "byteLength" : 1056, "target" : 34963}, {"buffer" : 0, "byteOffset" : 1060, "byteLength" : 16896, "byteStride" : 32, "target" : 34962}], "images" : [{"uri" : "data:image/png;base64,"}], "materials" : [{"name" : "Material01", "pbrMetallicRoughness" : {"baseColorFactor" : [0.909804, 0.690196, 0.905882, 1], "baseColorTexture" : {"index" : 0, "texCoord" : 0}, "metallicFactor" : 0, "roughnessFactor" : 0}, "emissiveFactor" : [0, 0, 0], "alphaMode" : "OPAQUE", "doubleSided" : false}], "meshes" : [{"primitives" : [{"attributes" : {"POSITION" : 1, "TEXCOORD_0" : 2, "NORMAL" : 3}, "indices" : 0, "material" : 0, "mode" : 4}], "name" : ""}], "nodes" : [{"mesh" : 0, "name" : "Cylinder01"}], "samplers" : [{"magFilter" : 9729, "minFilter" : 9729, "wrapS" : 10497, "wrapT" : 10497}], "scene" : 0, "scenes" : [{"nodes" : [0]}], "textures" : [{"sampler" : 0, "source" : 0, "name" : ""}]}